<svg xmlns="http://www.w3.org/2000/svg" fill="none" viewBox="0 0 334 250" height="250" width="334">
<g clip-path="url(#clip0_13_2157)">
<g clip-path="url(#clip1_13_2157)">
<path fill="black" d="M298.9 124.992C297.553 124.157 296.278 123.424 295.053 122.599C290.832 119.888 287.695 115.788 286.187 111.009C285.476 108.607 285.132 106.111 285.166 103.606V57.3807C285.265 53.9042 285.006 50.4267 284.391 47.0033C282.656 38.6422 278.208 32.593 269.902 29.6905C266.646 28.6117 263.25 28.0114 259.821 27.9083C257.331 27.8065 257.331 27.8065 257.331 25.2911C257.331 17.3612 257.331 9.42447 257.331 1.48099C257.342 -0.0975271 257.127 0.00431234 258.821 0.00431234C265.539 -0.0679362 272.235 0.767951 278.728 2.4892C286.891 4.67875 294.145 8.45699 300.002 14.6488C304.438 19.4155 307.744 25.1164 309.675 31.3302C311.393 36.6943 312.445 42.2488 312.807 47.8689C312.991 50.476 313.073 53.0831 313.083 55.6902C313.083 69.3672 313.083 83.0443 313.083 96.7213C312.985 99.1317 313.52 101.526 314.634 103.667C316.37 106.542 319.158 108.631 322.409 109.492C325.787 110.556 329.315 111.068 332.857 111.009C333.694 111.009 334.01 111.193 334 112.099C334 120.708 334 129.313 334 137.915C334 138.812 333.714 139.025 332.867 139.005C329.892 138.921 326.919 139.243 324.031 139.962C321.06 140.584 318.332 142.048 316.174 144.179C313.756 146.714 313.113 149.882 313.113 153.222C313.113 166.95 313.113 180.678 313.113 194.406C313.217 200.847 312.552 207.277 311.134 213.562C309.012 222.412 305.216 230.376 298.492 236.74C293.832 241.064 288.291 244.329 282.248 246.313C278.043 247.75 273.695 248.73 269.28 249.236C265.668 249.694 262.033 249.949 258.393 250C257.586 250 257.372 249.776 257.372 248.982C257.372 240.325 257.372 231.669 257.372 223.013C257.372 222.137 257.709 221.994 258.464 221.994C262.101 222.047 265.724 221.524 269.198 220.446C272.613 219.487 275.726 217.674 278.244 215.18C280.761 212.685 282.6 209.59 283.585 206.189C284.73 202.472 285.285 198.599 285.227 194.711C285.227 178.526 285.227 162.34 285.227 146.154C285.19 143.497 285.59 140.851 286.411 138.323C287.901 134.046 290.708 130.35 294.431 127.762C295.835 126.708 297.331 125.781 298.9 124.992Z"></path>
<path fill="black" d="M35.1521 124.992C37.9458 126.373 40.5042 128.184 42.7333 130.359C44.6914 132.316 46.2345 134.646 47.2706 137.211C48.3066 139.776 48.8144 142.523 48.7635 145.289C48.7635 159.933 48.7635 174.581 48.7635 189.232C48.6833 192.51 48.7719 195.791 49.0288 199.06C49.6512 205.17 51.4266 210.843 56.0079 215.283C59.0791 218.171 62.8945 220.149 67.0276 220.996C69.8189 221.691 72.6921 222.003 75.5678 221.923C76.4351 221.923 76.5882 222.238 76.5882 222.941C76.5882 226.577 76.5882 230.212 76.5882 233.848C76.5882 238.767 76.5882 243.686 76.5882 248.605C76.5882 249.857 76.5882 249.888 75.3536 249.868C67.2419 249.674 59.2118 248.849 51.5082 246.12C38.856 241.7 29.9484 233.339 25.1732 220.752C22.9891 214.862 21.6694 208.687 21.2551 202.42C20.9184 198.031 20.8674 193.632 20.8572 189.181V153.039C20.9547 150.836 20.5097 148.644 19.5613 146.653C18.0646 143.879 15.5655 141.778 12.572 140.777C9.00305 139.486 5.22497 138.868 1.42989 138.954C0.0116157 138.954 0.00141224 138.954 0.00141224 137.569V112.364C0.00141224 110.816 -0.100622 111.009 1.42989 111.009C5.37251 111.043 9.2877 110.352 12.9801 108.973C18.2757 106.814 20.8368 102.862 20.8266 97.2101C20.8266 83.9506 20.8266 70.6843 20.8266 57.4112C20.7668 52.7557 21.0191 48.1014 21.5816 43.4795C22.7958 34.6297 25.2957 26.1872 30.6116 18.8242C34.8619 12.8965 40.6457 8.23249 47.3452 5.33045C53.117 2.83471 59.2393 1.24092 65.4971 0.605095C68.8234 0.228289 72.1395 0.0653457 75.5066 0.00424194C76.3841 0.00424194 76.6188 0.248657 76.6188 1.11429C76.6188 9.6145 76.6188 18.1181 76.6188 26.6251C76.6188 27.6435 76.2719 27.8166 75.4046 27.8777C73.67 27.9897 71.9354 28.0407 70.2009 28.2851C65.9652 28.7473 61.9044 30.2252 58.3649 32.5929C54.5917 35.2943 51.8188 39.1646 50.4777 43.6017C49.2344 47.7168 48.6625 52.0047 48.7839 56.3011C48.7839 72.0761 48.7023 87.8714 48.7839 103.626C48.8451 112.904 44.5597 119.452 36.7133 123.994C36.1497 124.254 35.6245 124.59 35.1521 124.992Z"></path>
<path fill="#FCB119" d="M219.793 63.3689C219.675 63.8449 219.467 64.2942 219.181 64.6928L208.59 83.0239C199.413 98.8701 190.23 114.703 181.04 130.522C180.722 130.987 180.559 131.542 180.576 132.105C180.592 132.669 180.787 133.212 181.132 133.659C188.268 145.879 195.373 158.134 202.447 170.423C208.039 180.07 213.63 189.714 219.222 199.355C220.16 200.974 219.803 200.852 218.63 201.524C212.804 204.844 206.998 208.205 201.192 211.556C200.06 212.207 200.039 212.218 199.396 211.107C195.778 204.875 192.162 198.636 188.55 192.389C181.578 180.352 174.612 168.311 167.654 156.267C167.629 156.225 167.609 156.18 167.592 156.135C166.96 155.116 166.878 155.116 166.276 156.135L157.134 171.757C149.549 184.894 141.951 198.038 134.339 211.189C133.748 212.207 133.737 212.207 132.789 211.657L114.953 201.392C113.82 200.74 113.8 200.72 114.484 199.539C120.368 189.355 126.258 179.171 132.156 168.987C138.9 157.346 145.614 145.696 152.43 134.107C152.881 133.486 153.123 132.739 153.123 131.973C153.123 131.207 152.881 130.46 152.43 129.84C144.165 115.725 135.948 101.576 127.779 87.3928L114.514 64.5706C113.78 63.3078 113.769 63.2874 114.963 62.6051C120.902 59.1833 126.86 55.7818 132.789 52.3397C133.533 51.9017 133.809 51.9323 134.299 52.7165C141.135 64.591 147.995 76.4519 154.879 88.2992L166.317 108.107C166.837 108.983 166.868 109.003 167.429 108.046C169.946 103.721 172.459 99.3861 174.969 95.041L197.948 55.4865C198.488 54.5598 199.049 53.6432 199.549 52.6961C199.907 52.024 200.233 51.8712 200.978 52.3091C203.835 54.02 206.743 55.6291 209.63 57.2891C212.691 59.0407 215.752 60.8059 218.813 62.5847C219.195 62.7692 219.53 63.0372 219.793 63.3689Z"></path>
</g>
</g>
<defs>
<clipPath id="clip0_13_2157">
<rect fill="white" height="250" width="334"></rect>
</clipPath>
<clipPath id="clip1_13_2157">
<rect fill="white" height="250" width="334"></rect>
</clipPath>
</defs>
</svg>
