<svg xmlns="http://www.w3.org/2000/svg" fill="none" viewBox="0 0 1000 250" height="250" width="1000">
<g clip-path="url(#clip0_13_1534)">
<g clip-path="url(#clip1_13_1534)">
<path fill="black" d="M298.9 124.992C297.553 124.157 296.278 123.424 295.053 122.599C290.832 119.888 287.695 115.788 286.187 111.009C285.476 108.607 285.132 106.111 285.166 103.606V57.3807C285.265 53.9042 285.006 50.4267 284.391 47.0033C282.656 38.6422 278.208 32.593 269.902 29.6905C266.646 28.6117 263.25 28.0114 259.821 27.9083C257.331 27.8065 257.331 27.8065 257.331 25.2911C257.331 17.3612 257.331 9.42447 257.331 1.48099C257.342 -0.0975271 257.127 0.00431234 258.821 0.00431234C265.539 -0.0679362 272.235 0.767951 278.728 2.4892C286.891 4.67875 294.145 8.45699 300.002 14.6488C304.438 19.4155 307.744 25.1164 309.675 31.3302C311.393 36.6943 312.445 42.2488 312.807 47.8689C312.991 50.476 313.073 53.0831 313.083 55.6902C313.083 69.3672 313.083 83.0443 313.083 96.7213C312.985 99.1317 313.52 101.526 314.634 103.667C316.37 106.542 319.158 108.631 322.409 109.492C325.787 110.556 329.315 111.068 332.857 111.009C333.694 111.009 334.01 111.193 334 112.099C334 120.708 334 129.313 334 137.915C334 138.812 333.714 139.025 332.867 139.005C329.892 138.921 326.919 139.243 324.031 139.962C321.06 140.584 318.332 142.048 316.174 144.179C313.756 146.714 313.113 149.882 313.113 153.222C313.113 166.95 313.113 180.678 313.113 194.406C313.217 200.847 312.552 207.277 311.134 213.562C309.012 222.412 305.216 230.376 298.492 236.74C293.832 241.064 288.291 244.329 282.248 246.313C278.043 247.75 273.695 248.73 269.28 249.236C265.668 249.694 262.033 249.949 258.393 250C257.586 250 257.372 249.776 257.372 248.982C257.372 240.325 257.372 231.669 257.372 223.013C257.372 222.137 257.709 221.994 258.464 221.994C262.101 222.047 265.724 221.524 269.198 220.446C272.613 219.487 275.726 217.674 278.244 215.18C280.761 212.685 282.6 209.59 283.585 206.189C284.73 202.472 285.285 198.599 285.227 194.711C285.227 178.526 285.227 162.34 285.227 146.154C285.19 143.497 285.59 140.851 286.411 138.323C287.901 134.046 290.708 130.35 294.431 127.762C295.835 126.708 297.331 125.781 298.9 124.992Z"></path>
<path fill="black" d="M35.1521 124.992C37.9458 126.373 40.5042 128.184 42.7333 130.359C44.6914 132.316 46.2345 134.646 47.2706 137.211C48.3066 139.776 48.8144 142.523 48.7635 145.289C48.7635 159.933 48.7635 174.581 48.7635 189.232C48.6833 192.51 48.7719 195.791 49.0288 199.06C49.6512 205.17 51.4266 210.843 56.0079 215.283C59.0791 218.171 62.8945 220.149 67.0276 220.996C69.8189 221.691 72.6921 222.003 75.5678 221.923C76.4351 221.923 76.5882 222.238 76.5882 222.941C76.5882 226.577 76.5882 230.212 76.5882 233.848C76.5882 238.767 76.5882 243.686 76.5882 248.605C76.5882 249.857 76.5882 249.888 75.3536 249.868C67.2419 249.674 59.2118 248.849 51.5082 246.12C38.856 241.7 29.9484 233.339 25.1732 220.752C22.9891 214.862 21.6694 208.687 21.2551 202.42C20.9184 198.031 20.8674 193.632 20.8572 189.181V153.039C20.9547 150.836 20.5097 148.644 19.5613 146.653C18.0646 143.879 15.5655 141.778 12.572 140.777C9.00305 139.486 5.22497 138.868 1.42989 138.954C0.0116157 138.954 0.00141224 138.954 0.00141224 137.569V112.364C0.00141224 110.816 -0.100622 111.009 1.42989 111.009C5.37251 111.043 9.2877 110.352 12.9801 108.973C18.2757 106.814 20.8368 102.862 20.8266 97.2101C20.8266 83.9506 20.8266 70.6843 20.8266 57.4112C20.7668 52.7557 21.0191 48.1014 21.5816 43.4795C22.7958 34.6297 25.2957 26.1872 30.6116 18.8242C34.8619 12.8965 40.6457 8.23248 47.3452 5.33044C53.117 2.83471 59.2393 1.24091 65.4971 0.605088C68.8234 0.228281 72.1395 0.065338 75.5066 0.00423431C76.3841 0.00423431 76.6188 0.248649 76.6188 1.11429C76.6188 9.61449 76.6188 18.1181 76.6188 26.6251C76.6188 27.6435 76.2719 27.8166 75.4046 27.8777C73.67 27.9897 71.9354 28.0407 70.2009 28.2851C65.9652 28.7473 61.9044 30.2252 58.3649 32.5929C54.5917 35.2943 51.8188 39.1646 50.4777 43.6017C49.2344 47.7168 48.6625 52.0047 48.7839 56.3011C48.7839 72.0761 48.7023 87.8714 48.7839 103.626C48.8451 112.904 44.5597 119.452 36.7133 123.994C36.1497 124.254 35.6245 124.59 35.1521 124.992Z"></path>
<path fill="#FCB119" d="M219.793 63.3689C219.675 63.8449 219.467 64.2942 219.181 64.6928L208.59 83.0239C199.413 98.8701 190.23 114.703 181.04 130.522C180.722 130.987 180.559 131.542 180.576 132.105C180.592 132.669 180.787 133.212 181.132 133.659C188.268 145.879 195.373 158.134 202.447 170.423C208.039 180.07 213.63 189.714 219.222 199.355C220.16 200.974 219.803 200.852 218.63 201.524C212.804 204.844 206.998 208.205 201.192 211.556C200.06 212.207 200.039 212.218 199.396 211.107C195.778 204.875 192.162 198.636 188.55 192.389C181.578 180.352 174.612 168.311 167.654 156.267C167.629 156.225 167.609 156.18 167.592 156.134C166.96 155.116 166.878 155.116 166.276 156.134L157.134 171.757C149.549 184.894 141.951 198.038 134.339 211.189C133.748 212.207 133.737 212.207 132.789 211.657L114.953 201.392C113.82 200.74 113.8 200.72 114.484 199.539C120.368 189.355 126.258 179.171 132.156 168.987C138.9 157.346 145.614 145.696 152.43 134.107C152.881 133.486 153.123 132.739 153.123 131.973C153.123 131.207 152.881 130.46 152.43 129.84C144.165 115.725 135.948 101.576 127.779 87.3928L114.514 64.5706C113.78 63.3078 113.769 63.2874 114.963 62.6051C120.902 59.1833 126.86 55.7818 132.789 52.3396C133.533 51.9017 133.809 51.9323 134.299 52.7165C141.135 64.5909 147.995 76.4519 154.879 88.2992L166.317 108.107C166.837 108.983 166.868 109.003 167.429 108.046C169.946 103.721 172.459 99.3861 174.969 95.041L197.948 55.4865C198.488 54.5598 199.049 53.6432 199.549 52.6961C199.907 52.0239 200.233 51.8712 200.978 52.3091C203.835 54.02 206.743 55.6291 209.63 57.2891C212.691 59.0407 215.752 60.8059 218.813 62.5847C219.195 62.7692 219.53 63.0372 219.793 63.3689Z"></path>
</g>
<g clip-path="url(#clip2_13_1534)">
<path fill="black" d="M398.005 13H429.581V22.567H409.401V32.7447H426.582V42.3116H409.401V53.8836H430.353V63.4506H398.005V13Z"></path>
<path fill="black" d="M449.242 37.4874L436.138 13H448.825L453.206 22.5466C453.897 23.9666 454.572 25.4894 455.323 27.1828C455.799 28.2567 456.306 29.3993 456.866 30.6277H457.181C458.34 27.4624 459.397 24.8671 460.404 22.5466L464.389 13H476.588L463.464 38.0269L477.401 63.471H464.704L459.733 53.1814C458.472 50.5759 457.303 47.9704 455.961 44.8764H455.646C454.457 47.9297 453.318 50.5759 452.179 53.1814L447.462 63.471H435.263L449.242 37.4874Z"></path>
<path fill="black" d="M501.494 13H484.212V63.4506H495.578V46.3827H501.799C512.484 46.3827 521.521 41.1412 521.521 29.2842C521.521 16.9693 512.575 13 501.494 13ZM510.389 29.2334C510.389 34.485 507.421 37.2737 501.159 37.2737L495.608 37.3755V22.109H500.854C507.014 22.109 510.389 23.9817 510.389 29.2334Z" clip-rule="evenodd" fill-rule="evenodd"></path>
<path fill="black" d="M530.294 13H561.809V22.567H541.65V32.7447H558.83V42.3116H541.65V53.8836H562.602V63.4506H530.294V13Z"></path>
<path fill="black" d="M590.802 13H572.656V63.4506H584.052V45.2937H590.307L599.941 63.4913H612.679L601.274 43.2818C606.662 40.8502 610.249 36.136 610.249 28.7143C610.249 16.7148 601.496 13 590.802 13ZM599.087 28.7143C599.087 33.6708 595.875 36.2356 589.877 36.2356H584.052V22.0581H589.877C595.875 22.0581 599.087 23.7578 599.087 28.7143Z" clip-rule="evenodd" fill-rule="evenodd"></path>
<path fill="black" d="M620.049 13H631.445V63.4506H620.049V13Z"></path>
<path fill="black" d="M655.742 13H643.309V63.4506H653.525V44.9375C653.525 40.7042 652.842 34.6894 652.308 29.9873C652.221 29.218 652.137 28.4838 652.062 27.7983H652.377L656.392 39.7367L663.508 59.0742H669.832L676.948 39.7367L681.085 27.7983H681.39C681.307 28.5729 681.214 29.4061 681.117 30.2795L681.113 30.3149L681.111 30.3256L681.107 30.3625L681.106 30.3714L681.105 30.3855L681.1 30.4314C680.579 35.0861 679.937 40.8394 679.937 44.9375V63.4506H690.306V13H677.883L669.964 35.3908C669.431 36.9471 668.946 38.5899 668.459 40.2402C668.016 41.7415 667.571 43.249 667.087 44.7034H666.782C666.324 43.3064 665.896 41.8825 665.47 40.4681L665.469 40.4666L665.469 40.4648L665.468 40.4619L665.467 40.4604L665.467 40.4592L665.467 40.4576L665.466 40.4564C664.947 38.7323 664.432 37.0213 663.874 35.3908L655.742 13Z"></path>
<path fill="black" d="M702.271 13H733.785V22.567H713.626V32.7447H730.807V42.3116H713.626V53.8836H734.578V63.4506H702.271V13Z"></path>
<path fill="black" d="M756.272 13H744.602V63.4506H755.459V45.599C755.459 40.9683 754.915 35.8897 754.419 31.2594L754.419 31.2582L754.418 31.2555L754.418 31.254C754.271 29.8819 754.128 28.5492 754.005 27.2793H754.31L759.292 38.2915L772.416 63.4506H784.157V13H773.3V30.8516C773.3 35.5432 773.881 40.9499 774.385 45.6456C774.517 46.8785 774.644 48.0623 774.754 49.1714H774.449L769.427 38.1388L756.272 13Z"></path>
<path fill="black" d="M805.872 22.567H792.006V13H831.134V22.567H817.268V63.4506H805.872V22.567Z"></path>
<path fill="black" d="M858.918 13H845.285L829.467 63.4506H841.117L844.231 51.4308H859.585L862.689 63.4506H874.746L858.918 13ZM857.295 42.5661L856.091 37.9047C855.178 34.5661 854.281 30.8683 853.4 27.2308L853.399 27.2269L853.398 27.2248C852.937 25.32 852.479 23.4318 852.025 21.6205H851.71C850.49 26.9434 849.138 32.8159 847.735 37.9047L846.527 42.5661H857.295Z" clip-rule="evenodd" fill-rule="evenodd"></path>
<path fill="black" d="M879.595 13H890.991V53.8836H910.875V63.4506H879.595V13Z"></path>
<path fill="black" d="M401.299 135.569L394.752 143.396C399.859 148.072 406.526 150.671 413.447 150.683C425.453 150.683 432.427 143.427 432.427 135.05C432.427 127.926 428.595 123.814 422.434 121.331L416.019 118.725L415.466 118.506C411.345 116.872 408.324 115.675 408.324 112.751C408.324 109.871 410.764 108.232 414.749 108.232C418.734 108.232 421.885 109.627 425.209 112.181L430.963 104.996C426.624 100.763 420.807 98.3901 414.749 98.3803C404.257 98.3803 396.806 105.057 396.806 113.423C396.806 120.751 401.746 125.046 406.972 127.163L413.519 129.962L414.13 130.213C418.184 131.874 420.787 132.941 420.787 135.966C420.787 138.969 418.429 140.841 413.671 140.841C409.523 140.841 404.878 138.694 401.299 135.569Z"></path>
<path fill="black" d="M448.255 131.773L433.078 99.3167H445.277L449.78 110.899C450.49 112.895 451.193 114.815 451.907 116.759L451.907 116.761C452.543 118.494 453.186 120.248 453.847 122.094H454.223C454.931 120.162 455.64 118.33 456.342 116.513C457.061 114.655 457.773 112.813 458.472 110.899L462.976 99.3167H474.88L459.641 131.773V149.767H448.255V131.773Z"></path>
<path fill="black" d="M482.016 135.569L475.47 143.396C480.576 148.074 487.243 150.673 494.165 150.683C506.171 150.683 513.144 143.427 513.144 135.05C513.144 127.926 509.251 123.814 503.151 121.331L496.737 118.725C496.55 118.651 496.366 118.578 496.184 118.506C492.062 116.872 489.041 115.675 489.041 112.751C489.041 109.871 491.481 108.232 495.466 108.232C499.451 108.232 502.602 109.627 505.927 112.181L511.67 104.996C507.336 100.762 501.522 98.3884 495.466 98.3803C484.975 98.3803 477.523 105.057 477.523 113.423C477.523 120.751 482.464 125.046 487.689 127.163L494.236 129.962C494.398 130.028 494.558 130.094 494.715 130.158L494.842 130.21L494.848 130.213C498.901 131.874 501.504 132.941 501.504 135.966C501.504 138.969 499.146 140.841 494.388 140.841C490.241 140.841 485.595 138.694 482.016 135.569Z"></path>
<path fill="black" d="M530.03 108.874H516.153V99.3167H555.282V108.874H541.416V149.757H530.03V108.874Z"></path>
<path fill="black" d="M594.726 99.3167H563.151V149.808H595.529V140.241H574.547V128.618H591.727V119.051H574.547V108.874H594.726V99.3167Z"></path>
<path fill="black" d="M605.522 99.3167H617.945L626.128 121.708C626.701 123.381 627.228 125.139 627.76 126.91L627.761 126.916C628.173 128.287 628.587 129.666 629.026 131.02H629.341C629.835 129.536 630.288 127.997 630.739 126.465L630.74 126.464L630.74 126.463C631.216 124.844 631.691 123.234 632.208 121.708L640.127 99.3167H652.56V149.757H642.191V131.244C642.191 127.038 642.86 121.09 643.391 116.374L643.391 116.373C643.481 115.577 643.566 114.816 643.644 114.105H643.309L639.242 126.043L632.126 145.381H625.803L618.687 126.043L614.621 114.105H614.316C614.388 114.762 614.467 115.463 614.55 116.197L614.551 116.199L614.551 116.2L614.551 116.201C615.084 120.922 615.769 126.982 615.769 131.244V149.757H605.603L605.522 99.3167Z"></path>
<path fill="black" d="M667.717 135.569L661.181 143.396C666.292 148.079 672.968 150.678 679.896 150.683C691.902 150.683 698.876 143.427 698.876 135.05C698.876 127.926 695.033 123.814 688.883 121.331L682.458 118.725C682.263 118.648 682.071 118.571 681.88 118.496C677.78 116.867 674.762 115.669 674.762 112.751C674.762 109.871 677.222 108.232 681.197 108.232C685.172 108.232 688.334 109.627 691.648 112.181L697.402 104.996C693.066 100.764 687.253 98.3906 681.197 98.3803C670.706 98.3803 663.244 105.057 663.244 113.423C663.244 120.751 668.185 125.046 673.41 127.163L679.957 129.962C680.159 130.045 680.359 130.127 680.555 130.207C684.616 131.871 687.215 132.937 687.215 135.966C687.215 138.969 684.847 140.841 680.099 140.841C675.952 140.841 671.306 138.694 667.717 135.569Z"></path>
<path fill="black" d="M718.852 136.272C718.852 129.234 723.137 125.178 728.05 122.075C726.089 118.385 724.951 114.776 724.951 111.55C724.951 104.426 730.268 98.3192 738.696 98.3192C746.239 98.3192 751.067 102.828 751.067 109.728C751.067 116.391 745.805 120.518 740.492 124.111C743.326 127.411 746.883 130.616 750.603 133.355C753.324 129.746 755.321 125.625 756.466 121.219H766.814C765.012 127.358 762.151 133.121 758.371 138.251C761.537 139.917 764.553 141.087 767.099 141.503L764.395 150.663C759.828 149.657 755.455 147.938 751.435 145.573C749.897 146.714 748.233 147.683 746.471 148.46C743.066 149.961 739.377 150.71 735.656 150.653C724.636 150.683 718.852 143.986 718.852 136.272ZM742.376 109.81C742.376 113.184 739.616 115.417 735.987 117.557C734.935 115.457 734.334 113.419 734.334 111.54C734.334 108.019 736.357 105.902 738.919 105.902C741.278 105.902 742.376 107.428 742.376 109.81ZM729.607 135.549C729.607 133.227 730.959 131.292 732.984 129.482C735.954 133.21 739.558 136.814 743.467 139.98C741.363 141.221 739.195 141.951 737.089 141.951C732.657 141.951 729.607 139.345 729.607 135.549Z" clip-rule="evenodd" fill-rule="evenodd"></path>
<path fill="black" d="M394 195.19H407.866V236.064H419.262V195.19H433.129V185.623H394V195.19Z"></path>
<path fill="black" d="M441.007 185.623H472.582V195.19H452.383V205.317H469.563V214.884H452.383V226.507H473.345V236.064H441.007V185.623Z"></path>
<path fill="black" d="M504.768 184.697C492.03 184.697 480.979 194.417 480.979 211.159C480.979 228.125 491.654 237 504.442 236.98C507.534 237.038 510.6 236.403 513.414 235.121C516.229 233.839 518.721 231.942 520.708 229.57L514.71 222.446C513.494 223.886 511.986 225.051 510.286 225.864C508.586 226.676 506.732 227.117 504.849 227.158C497.469 227.158 492.65 221.133 492.65 210.762C492.65 200.656 498.109 194.549 505.022 194.549C508.671 194.549 511.386 196.208 513.917 198.559L519.915 191.251C517.955 189.202 515.605 187.567 513.003 186.441C510.402 185.315 507.602 184.722 504.768 184.697Z"></path>
<path fill="black" d="M528.363 185.623H539.749V205.052H557.142V185.613H568.538V236.053H557.142V215.006H539.749V236.064H528.363V185.623Z"></path>
<path fill="black" d="M592.144 185.623H580.463V236.064H591.32V218.161C591.32 213.59 590.779 208.538 590.284 203.916C590.135 202.528 589.991 201.178 589.867 199.892H590.182L595.163 210.915L608.307 236.064H619.978V185.623H609.131V203.475C609.131 208.239 609.725 213.75 610.237 218.506C610.361 219.653 610.48 220.756 610.585 221.795H610.269L605.288 210.711L592.144 185.623Z"></path>
<path fill="black" d="M629.503 210.63C629.503 194.142 638.795 184.687 652.387 184.687C665.979 184.687 675.27 194.203 675.27 210.63C675.27 227.056 665.968 237 652.387 237C638.805 237 629.503 227.107 629.503 210.63ZM663.6 210.63C663.6 200.513 659.259 194.539 652.417 194.539C645.576 194.539 641.235 200.513 641.235 210.63C641.235 220.746 645.576 227.148 652.417 227.148C659.259 227.148 663.641 220.736 663.641 210.63H663.6Z" clip-rule="evenodd" fill-rule="evenodd"></path>
<path fill="black" d="M696.171 185.623H684.765V236.064H716.066V226.507H696.171V185.623Z"></path>
<path fill="black" d="M719.645 210.63C719.645 194.142 728.946 184.687 742.538 184.687C756.13 184.687 765.422 194.203 765.422 210.63C765.422 227.056 756.12 237 742.538 237C728.957 237 719.645 227.107 719.645 210.63ZM753.741 210.63C753.741 200.513 749.41 194.539 742.559 194.539C735.707 194.539 731.376 200.513 731.376 210.63C731.376 220.746 735.707 227.148 742.559 227.148C749.41 227.148 753.741 220.736 753.741 210.63Z" clip-rule="evenodd" fill-rule="evenodd"></path>
<path fill="black" d="M797.089 184.697C783.639 184.697 772.528 194.417 772.528 211.159C772.528 228.125 783.324 237 797.261 236.99C804.286 236.99 810.406 234.293 813.883 230.883V207.627H795.421V216.94H803.767V225.652C802.186 226.691 800.321 227.214 798.43 227.148C788.946 227.148 784.259 221.123 784.259 210.752C784.259 200.645 789.718 194.539 797.475 194.539C799.248 194.526 801.005 194.875 802.639 195.565C804.274 196.254 805.75 197.27 806.98 198.549L812.988 191.251C810.919 189.139 808.443 187.468 805.71 186.342C802.977 185.215 800.044 184.655 797.089 184.697Z"></path>
<path fill="black" d="M832.893 218.08L817.705 185.623H829.904L834.428 197.216C835.119 199.16 835.805 201.029 836.499 202.921L836.501 202.926C837.154 204.706 837.814 206.507 838.494 208.411H838.799C839.48 206.567 840.159 204.816 840.832 203.081L840.833 203.079L840.834 203.076L840.835 203.074C841.586 201.135 842.33 199.218 843.059 197.216L847.562 185.623H859.456L844.279 218.08V236.064H832.893V218.08Z"></path>
<path fill="black" d="M889.751 185.623H878.355V236.064H909.656V226.507H889.751V185.623Z"></path>
<path fill="black" d="M927.314 185.623H940.946L956.775 236.064H944.718L941.627 224.095H926.257L923.156 236.064H911.496L927.314 185.623ZM938.12 210.518L939.337 215.23H928.553L929.774 210.518C931.177 205.429 932.529 199.567 933.749 194.233H934.054C934.508 196.047 934.967 197.937 935.429 199.844C936.31 203.481 937.206 207.179 938.12 210.518Z" clip-rule="evenodd" fill-rule="evenodd"></path>
<path fill="black" d="M978.906 185.623H961.624V236.064H980.37C991.329 236.064 1000 231.474 1000 221.204C1000 214.426 995.995 210.67 990.851 209.337V209.022C994.958 207.475 997.489 202.661 997.489 198.132C997.489 188.493 989.366 185.623 978.906 185.623ZM986.317 199.821C986.317 203.485 983.867 205.826 978.347 205.826H973.02V194.417H978.428C983.735 194.417 986.317 195.933 986.317 199.821ZM988.777 220.471C988.777 225.051 985.575 227.27 979.363 227.27H972.999V214.243H979.363C985.625 214.243 988.777 216.044 988.777 220.471Z" clip-rule="evenodd" fill-rule="evenodd"></path>
</g>
</g>
<defs>
<clipPath id="clip0_13_1534">
<rect fill="white" height="250" width="1000"></rect>
</clipPath>
<clipPath id="clip1_13_1534">
<rect fill="white" height="250" width="334"></rect>
</clipPath>
<clipPath id="clip2_13_1534">
<rect transform="translate(394 13)" fill="white" height="224" width="606"></rect>
</clipPath>
</defs>
</svg>
