<svg xmlns="http://www.w3.org/2000/svg" fill="none" viewBox="0 0 1001 251" height="251" width="1001">
<path fill="black" d="M298.369 125.014C297.024 124.179 295.751 123.446 294.529 122.621C290.315 119.91 287.183 115.809 285.678 111.029C284.968 108.626 284.625 106.13 284.659 103.624V57.391C284.758 53.9138 284.499 50.4357 283.885 47.0117C282.154 38.6491 277.713 32.5988 269.422 29.6958C266.172 28.6168 262.782 28.0163 259.359 27.9133C256.874 27.8114 256.874 27.8114 256.874 25.2955C256.874 17.3642 256.874 9.42609 256.874 1.48117C256.884 -0.0976248 256.67 0.00423301 258.361 0.00423301C265.067 -0.0680285 271.751 0.76801 278.232 2.48957C286.381 4.67951 293.622 8.45844 299.469 14.6514C303.897 19.4189 307.197 25.1209 309.124 31.3357C310.84 36.7008 311.89 42.2563 312.251 47.8774C312.435 50.485 312.516 53.0926 312.526 55.7001C312.526 69.3796 312.526 83.0592 312.526 96.7387C312.429 99.1495 312.963 101.544 314.074 103.685C315.807 106.561 318.59 108.65 321.836 109.512C325.208 110.575 328.73 111.088 332.265 111.029C333.1 111.029 333.416 111.213 333.406 112.119C333.406 120.73 333.406 129.337 333.406 137.94C333.406 138.837 333.121 139.05 332.275 139.03C329.305 138.946 326.338 139.268 323.455 139.988C320.49 140.609 317.766 142.074 315.612 144.204C313.198 146.741 312.557 149.908 312.557 153.249C312.557 166.98 312.557 180.71 312.557 194.441C312.66 200.883 311.997 207.315 310.581 213.6C308.462 222.452 304.673 230.417 297.961 236.783C293.31 241.107 287.779 244.373 281.746 246.358C277.549 247.795 273.209 248.775 268.801 249.281C265.195 249.739 261.567 249.994 257.933 250.045C257.129 250.045 256.915 249.821 256.915 249.026C256.915 240.368 256.915 231.711 256.915 223.053C256.915 222.177 257.251 222.034 258.004 222.034C261.635 222.087 265.252 221.564 268.719 220.486C272.128 219.527 275.236 217.714 277.749 215.218C280.262 212.723 282.097 209.628 283.081 206.226C284.224 202.509 284.778 198.635 284.72 194.746C284.72 178.558 284.72 162.369 284.72 146.18C284.683 143.522 285.082 140.876 285.902 138.348C287.389 134.07 290.191 130.373 293.908 127.785C295.309 126.731 296.802 125.804 298.369 125.014Z"></path>
<path fill="black" d="M35.0897 125.014C37.8784 126.395 40.4322 128.207 42.6573 130.382C44.612 132.34 46.1524 134.67 47.1866 137.236C48.2208 139.801 48.7276 142.549 48.6768 145.315C48.6768 159.962 48.6768 174.612 48.6768 189.266C48.5968 192.545 48.6852 195.826 48.9416 199.096C49.5629 205.207 51.3352 210.881 55.9084 215.322C58.974 218.21 62.7827 220.188 66.9084 221.036C69.6948 221.731 72.5629 222.043 75.4335 221.963C76.2993 221.963 76.452 222.279 76.452 222.981C76.452 226.618 76.452 230.254 76.452 233.89C76.452 238.81 76.452 243.73 76.452 248.65C76.452 249.902 76.452 249.933 75.2196 249.913C67.1223 249.719 59.1065 248.894 51.4167 246.164C38.7869 241.744 29.8952 233.381 25.1285 220.791C22.9483 214.9 21.6309 208.725 21.2173 202.457C20.8812 198.067 20.8303 193.667 20.8201 189.215V153.066C20.9174 150.864 20.4733 148.671 19.5266 146.68C18.0325 143.905 15.5378 141.803 12.5497 140.802C8.98705 139.511 5.21568 138.893 1.42735 138.979C0.011595 138.979 0.00140973 138.979 0.00140973 137.594V112.384C0.00140973 110.836 -0.100443 111.029 1.42735 111.029C5.36296 111.063 9.27119 110.372 12.9571 108.992C18.2432 106.833 20.7997 102.881 20.7895 97.2276C20.7895 83.9657 20.7895 70.697 20.7895 57.4215C20.7299 52.7652 20.9817 48.1101 21.5433 43.4874C22.7553 34.6359 25.2507 26.1919 30.5572 18.8276C34.8 12.8988 40.5735 8.23396 47.2611 5.3314C53.0225 2.83522 59.134 1.24114 65.3807 0.605196C68.7011 0.228322 72.0113 0.065349 75.3724 0.00423431C76.2483 0.00423431 76.4826 0.248693 76.4826 1.11449C76.4826 9.61622 76.4826 18.1214 76.4826 26.6299C76.4826 27.6485 76.1363 27.8216 75.2706 27.8827C73.5391 27.9948 71.8076 28.0457 70.0761 28.2902C65.8479 28.7525 61.7944 30.2307 58.2612 32.5988C54.4947 35.3006 51.7267 39.1717 50.3879 43.6096C49.1469 47.7254 48.576 52.0141 48.6972 56.3113C48.6972 72.0891 48.6157 87.8872 48.6972 103.645C48.7583 112.924 44.4805 119.473 36.648 124.016C36.0855 124.276 35.5612 124.612 35.0897 125.014Z"></path>
<path fill="#FCB119" d="M219.402 63.3802C219.284 63.8563 219.077 64.3057 218.791 64.7044L208.219 83.0388C199.059 98.8879 189.892 114.723 180.719 130.545C180.401 131.011 180.238 131.565 180.255 132.129C180.271 132.692 180.466 133.236 180.81 133.683C187.933 145.905 195.026 158.162 202.087 170.453C207.669 180.103 213.25 189.749 218.832 199.391C219.769 201.011 219.412 200.888 218.241 201.561C212.425 204.881 206.63 208.242 200.835 211.594C199.704 212.246 199.684 212.256 199.042 211.145C195.43 204.912 191.821 198.671 188.215 192.424C181.255 180.384 174.302 168.341 167.356 156.295C167.331 156.253 167.311 156.209 167.294 156.163C166.663 155.144 166.581 155.144 165.981 156.163L156.855 171.788C149.283 184.927 141.699 198.074 134.101 211.227C133.51 212.246 133.5 212.246 132.552 211.695L114.749 201.428C113.618 200.776 113.598 200.756 114.28 199.574C120.154 189.389 126.034 179.203 131.921 169.017C138.653 157.375 145.355 145.722 152.159 134.131C152.609 133.51 152.851 132.763 152.851 131.997C152.851 131.23 152.609 130.483 152.159 129.863C143.909 115.745 135.707 101.594 127.552 87.4085L114.311 64.5821C113.577 63.3191 113.567 63.2987 114.759 62.6163C120.687 59.1939 126.635 55.7918 132.552 52.349C133.296 51.911 133.571 51.9416 134.06 52.7259C140.884 64.6025 147.732 76.4656 154.604 88.315L166.021 108.126C166.541 109.002 166.571 109.023 167.131 108.065C169.644 103.74 172.153 99.404 174.658 95.058L197.596 55.4964C198.135 54.5695 198.696 53.6528 199.195 52.7055C199.551 52.0332 199.877 51.8805 200.621 52.3184C203.473 54.0297 206.375 55.639 209.258 57.2993C212.313 59.0513 215.369 60.8168 218.424 62.5959C218.805 62.7804 219.14 63.0485 219.402 63.3802Z"></path>
<path fill="black" d="M397.419 12.933H429.055V22.5077H408.837V32.6935H426.05V42.2681H408.837V53.8493H429.829V63.424H397.419V12.933Z"></path>
<path fill="black" d="M448.753 37.44L435.624 12.933H448.335L452.725 22.4873C453.856 24.8097 454.946 27.407 456.392 30.5748H456.708C457.869 27.407 458.928 24.8097 459.936 22.4873L463.929 12.933H476.151L463.002 37.9799L476.966 63.4443H464.245L459.264 53.1465C458.001 50.539 456.83 47.9314 455.485 44.8349H455.17C453.978 47.8906 452.837 50.539 451.697 53.1465L446.971 63.4443H434.748L448.753 37.44Z"></path>
<path fill="black" d="M483.79 12.933H501.105C512.207 12.933 521.17 16.9055 521.17 29.2303C521.17 41.0967 512.116 46.3424 501.411 46.3424H495.177V63.424H483.79V12.933ZM500.769 37.2261C507.043 37.2261 510.017 34.4352 510.017 29.1794C510.017 23.9235 506.636 22.0493 500.464 22.0493H495.208V37.328L500.769 37.2261Z"></path>
<path fill="black" d="M529.96 12.933H561.535V22.5077H541.337V32.6935H558.55V42.2681H541.337V53.8493H562.329V63.424H529.96V12.933Z"></path>
<path fill="black" d="M572.402 12.933H590.583C601.298 12.933 610.067 16.6508 610.067 28.6599C610.067 40.2615 601.298 45.2525 590.583 45.2525H583.82V63.424H572.402V12.933ZM589.656 36.1872C595.665 36.1872 598.884 33.6204 598.884 28.6599C598.884 23.6994 595.665 21.9984 589.656 21.9984H583.82V36.1872H589.656ZM588.495 42.2477L596.389 34.9445L612.502 63.4647H599.74L588.495 42.2477Z"></path>
<path fill="black" d="M619.886 12.933H631.304V63.424H619.886V12.933Z"></path>
<path fill="black" d="M643.19 12.933H655.646L663.795 35.3418C664.813 38.316 665.689 41.5551 666.708 44.6618H667.013C668.032 41.606 668.877 38.316 669.896 35.3418L677.83 12.933H690.276V63.424H679.887V44.896C679.887 39.9763 680.814 32.6731 681.344 27.7432H681.038L676.893 39.6911L669.763 59.0441H663.428L656.298 39.6911L652.275 27.7432H651.959C652.499 32.6222 653.426 39.9661 653.426 44.896V63.424H643.19V12.933Z"></path>
<path fill="black" d="M702.264 12.933H733.839V22.5077H713.641V32.6935H730.854V42.2681H713.641V53.8493H734.633V63.424H702.264V12.933Z"></path>
<path fill="black" d="M744.676 12.933H756.369L769.548 38.0919L774.58 49.1333H774.885C774.356 43.796 773.429 36.727 773.429 30.7989V12.933H784.307V63.424H772.543L759.394 38.2447L754.403 27.2237H754.097C754.637 32.7851 755.554 39.5485 755.554 45.5581V63.424H744.676V12.933Z"></path>
<path fill="black" d="M806.062 22.5077H792.17V12.933H831.373V22.5077H817.48V63.424H806.062V22.5077Z"></path>
<path fill="black" d="M845.551 12.933H859.209L875.068 63.424H862.988L856.378 37.8576C854.982 32.7648 853.628 26.8366 852.304 21.5604H851.988C850.766 26.8876 849.411 32.7648 848.005 37.8576L841.375 63.424H829.703L845.551 12.933ZM840.153 42.5227H864.444V51.3946H840.153V42.5227Z"></path>
<path fill="black" d="M879.926 12.933H891.344V53.8493H911.266V63.424H879.926V12.933Z"></path>
<path fill="black" d="M394.16 143.433L400.719 135.6C404.305 138.728 408.959 140.877 413.115 140.877C417.881 140.877 420.244 139.003 420.244 135.998C420.244 132.82 417.372 131.801 412.962 129.988L406.403 127.187C401.167 125.068 396.217 120.77 396.217 113.436C396.217 105.063 403.683 98.3816 414.194 98.3816C420.265 98.3914 426.092 100.766 430.44 105.002L424.675 112.194C421.344 109.637 418.187 108.241 414.194 108.241C410.202 108.241 407.757 109.881 407.757 112.764C407.757 115.82 411.057 116.991 415.468 118.743L421.894 121.351C428.067 123.836 431.907 127.951 431.907 135.081C431.907 143.464 424.92 150.726 412.891 150.726C405.957 150.714 399.277 148.113 394.16 143.433Z"></path>
<path fill="black" d="M447.765 131.801L432.558 99.3187H444.781L449.293 110.91C450.637 114.689 451.961 118.193 453.367 122.114H453.744C455.18 118.203 456.616 114.699 458.001 110.91L462.513 99.3187H474.44L459.173 131.801V149.81H447.765V131.801Z"></path>
<path fill="black" d="M475.031 143.433L481.59 135.6C485.176 138.728 489.83 140.877 493.986 140.877C498.753 140.877 501.115 139.003 501.115 135.998C501.115 132.82 498.243 131.801 493.833 129.988L487.274 127.187C482.038 125.068 477.088 120.77 477.088 113.436C477.088 105.063 484.554 98.3816 495.065 98.3816C501.133 98.3897 506.958 100.765 511.301 105.002L505.546 112.194C502.215 109.637 499.058 108.241 495.065 108.241C491.073 108.241 488.628 109.881 488.628 112.764C488.628 115.82 491.928 116.991 496.339 118.743L502.766 121.351C508.877 123.836 512.778 127.951 512.778 135.081C512.778 143.464 505.791 150.726 493.762 150.726C486.827 150.716 480.147 148.115 475.031 143.433Z"></path>
<path fill="black" d="M529.695 108.883H515.792V99.3187H554.996V108.883H541.103V149.799H529.695V108.883Z"></path>
<path fill="black" d="M562.879 99.3187H594.514V108.883H574.297V119.069H591.51V128.644H574.297V140.276H595.319V149.85H562.879V99.3187Z"></path>
<path fill="black" d="M605.331 99.3187H617.778L625.977 121.727C626.995 124.702 627.871 127.941 628.88 131.047H629.195C630.214 127.992 631.059 124.702 632.068 121.727L640.002 99.3187H652.458V149.799H642.07V131.272C642.07 126.352 642.986 119.049 643.526 114.119H643.19L639.116 126.067L631.986 145.42H625.651L618.521 126.067L614.447 114.119H614.141C614.681 119.008 615.598 126.342 615.598 131.272V149.799H605.413L605.331 99.3187Z"></path>
<path fill="black" d="M661.096 143.433L667.645 135.6C671.24 138.728 675.895 140.877 680.05 140.877C684.807 140.877 687.18 139.003 687.18 135.998C687.18 132.82 684.318 131.801 679.908 129.988L673.348 127.187C668.113 125.068 663.163 120.77 663.163 113.436C663.163 105.063 670.639 98.3816 681.15 98.3816C687.217 98.3919 693.042 100.767 697.386 105.002L691.621 112.194C688.3 109.637 685.133 108.241 681.15 108.241C677.168 108.241 674.703 109.881 674.703 112.764C674.703 115.82 678.013 116.991 682.413 118.743L688.85 121.351C695.013 123.836 698.863 127.951 698.863 135.081C698.863 143.464 691.875 150.726 679.847 150.726C672.905 150.721 666.217 148.12 661.096 143.433Z"></path>
<path fill="black" d="M718.877 136.303C718.877 119.802 742.445 119.68 742.445 109.82C742.445 107.437 741.345 105.909 738.982 105.909C736.416 105.909 734.389 108.028 734.389 111.552C734.389 119.558 745.297 130.467 755.605 136.67C759.801 139.186 763.906 140.999 767.216 141.539L764.507 150.706C758.875 149.467 753.537 147.146 748.791 143.871C736.13 135.488 724.988 121.656 724.988 111.562C724.988 104.432 730.315 98.3205 738.758 98.3205C746.316 98.3205 751.154 102.833 751.154 109.739C751.154 123.204 729.653 126.321 729.653 135.58C729.653 139.379 732.708 141.987 737.149 141.987C740.673 141.987 744.37 139.95 747.65 136.894C751.95 132.553 755.024 127.152 756.562 121.239H766.931C764.677 128.908 760.769 135.991 755.482 141.987C753.008 144.776 749.961 146.998 746.549 148.501C743.137 150.004 739.441 150.753 735.713 150.696C724.672 150.726 718.877 144.024 718.877 136.303Z"></path>
<path fill="black" d="M407.299 195.269H393.406V185.694H432.609V195.269H418.717V236.175H407.299V195.269Z"></path>
<path fill="black" d="M440.503 185.694H472.138V195.269H451.9V205.404H469.113V214.978H451.9V226.611H472.902V236.175H440.503V185.694Z"></path>
<path fill="black" d="M480.551 211.25C480.551 194.495 491.623 184.767 504.385 184.767C507.224 184.793 510.03 185.386 512.636 186.513C515.243 187.639 517.597 189.276 519.561 191.327L513.552 198.64C511.016 196.287 508.296 194.627 504.64 194.627C497.714 194.627 492.244 200.739 492.244 210.853C492.244 221.232 497.072 227.262 504.466 227.262C506.353 227.222 508.21 226.78 509.914 225.967C511.617 225.154 513.128 223.988 514.346 222.546L520.355 229.676C518.365 232.05 515.868 233.948 513.048 235.231C510.228 236.515 507.157 237.15 504.059 237.092C491.246 237.112 480.551 228.23 480.551 211.25Z"></path>
<path fill="black" d="M528.025 185.694H539.433V205.139H556.86V185.684H568.277V236.165H556.86V215.101H539.433V236.175H528.025V185.694Z"></path>
<path fill="black" d="M580.225 185.694H591.927L605.097 210.802L610.088 221.895H610.403C609.864 216.547 608.947 209.478 608.947 203.56V185.694H619.815V236.175H608.122L594.952 211.006L589.962 199.975H589.646C590.186 205.546 591.102 212.31 591.102 218.258V236.175H580.225V185.694Z"></path>
<path fill="black" d="M629.358 210.721C629.358 194.22 638.668 184.757 652.285 184.757C665.903 184.757 675.212 194.281 675.212 210.721C675.212 227.161 665.893 237.112 652.285 237.112C638.678 237.112 629.358 227.211 629.358 210.721ZM663.52 210.721C663.52 200.596 659.171 194.617 652.316 194.617C645.461 194.617 641.112 200.596 641.112 210.721C641.112 220.845 645.461 227.252 652.316 227.252C659.171 227.252 663.56 220.835 663.56 210.721H663.52Z"></path>
<path fill="black" d="M684.725 185.694H696.153V226.611H716.086V236.175H684.725V185.694Z"></path>
<path fill="black" d="M719.671 210.721C719.671 194.22 728.991 184.757 742.608 184.757C756.226 184.757 765.535 194.281 765.535 210.721C765.535 227.161 756.216 237.112 742.608 237.112C729.001 237.112 719.671 227.211 719.671 210.721ZM753.832 210.721C753.832 200.596 749.494 194.617 742.629 194.617C735.764 194.617 731.425 200.596 731.425 210.721C731.425 220.845 735.764 227.252 742.629 227.252C749.494 227.252 753.832 220.835 753.832 210.721Z"></path>
<path fill="black" d="M772.655 211.25C772.655 194.495 783.787 184.767 797.262 184.767C800.223 184.726 803.162 185.286 805.9 186.413C808.638 187.541 811.119 189.212 813.192 191.327L807.173 198.63C805.941 197.35 804.461 196.334 802.824 195.644C801.187 194.954 799.426 194.604 797.649 194.617C789.878 194.617 784.409 200.728 784.409 210.843C784.409 221.222 789.104 227.252 798.607 227.252C800.501 227.318 802.369 226.795 803.954 225.755V217.036H795.592V207.716H814.088V230.99C810.605 234.403 804.474 237.102 797.436 237.102C783.472 237.112 772.655 228.23 772.655 211.25Z"></path>
<path fill="black" d="M833.135 218.177L817.918 185.694H830.141L834.673 197.296C836.017 201.075 837.342 204.568 838.747 208.5H839.053C840.499 204.589 841.935 201.095 843.32 197.296L847.832 185.694H859.749L844.543 218.177V236.175H833.135V218.177Z"></path>
<path fill="black" d="M878.684 185.694H890.101V226.611H910.044V236.175H878.684V185.694Z"></path>
<path fill="black" d="M927.736 185.694H941.394L957.253 236.175H945.173L938.563 210.609C937.167 205.516 935.813 199.588 934.489 194.311H934.183C932.961 199.649 931.606 205.516 930.201 210.609L923.57 236.175H911.887L927.736 185.694ZM922.338 215.325H946.629V224.196H922.338V215.325Z"></path>
<path fill="black" d="M962.111 185.694H979.426C989.907 185.694 998.045 188.567 998.045 198.213C998.045 202.745 995.508 207.563 991.394 209.111V209.427C996.547 210.761 1000.56 214.52 1000.56 221.304C1000.56 231.581 991.872 236.175 980.893 236.175H962.111V185.694ZM978.866 205.913C984.396 205.913 986.851 203.57 986.851 199.903C986.851 196.012 984.264 194.495 978.947 194.495H973.529V205.913H978.866ZM979.884 227.374C986.107 227.374 989.316 225.154 989.316 220.57C989.316 216.14 986.158 214.337 979.884 214.337H973.508V227.374H979.884Z"></path>
</svg>
